<svg width="24" height="24" viewBox="0 0 24 24" fill="none" xmlns="http://www.w3.org/2000/svg">
<g clip-path="url(#clip0_86_5)">
<path d="M19 8.70977L13.667 4.56177C13.199 4.19768 12.623 4 12.03 4C11.437 4 10.861 4.19768 10.393 4.56177L5.059 8.70977C4.73844 8.95905 4.47909 9.2783 4.30075 9.64312C4.12242 10.0079 4.02981 10.4087 4.03 10.8148V18.0148C4.03 18.5452 4.24071 19.0539 4.61579 19.429C4.99086 19.8041 5.49957 20.0148 6.03 20.0148H18.03C18.5604 20.0148 19.0691 19.8041 19.4442 19.429C19.8193 19.0539 20.03 18.5452 20.03 18.0148V10.8148C20.03 9.99177 19.65 9.21477 19 8.70977Z" fill="#1473E6" stroke="#1473E6" stroke-width="1.5" stroke-linecap="round" stroke-linejoin="round"/>
<path d="M16 15C13.79 16.333 10.208 16.333 8 15" stroke="white" stroke-width="1.5" stroke-linecap="round" stroke-linejoin="round"/>
</g>
<defs>
<clipPath id="clip0_86_5">
<rect width="24" height="24" fill="white"/>
</clipPath>
</defs>
</svg>
