<svg width="37" height="20" viewBox="0 0 37 20" fill="none" xmlns="http://www.w3.org/2000/svg">
<path opacity="0.91" d="M33.8473 2.1774C32.9701 1.63973 31.9287 1.21322 30.7825 0.922219C29.6363 0.631222 28.4077 0.481445 27.167 0.481445C25.9262 0.481445 24.6976 0.631222 23.5514 0.922219C22.4052 1.21322 21.3637 1.63973 20.4866 2.1774L18.6663 3.29272L16.8459 2.1774C15.0742 1.09186 12.6712 0.482008 10.1656 0.482008C7.66 0.482008 5.25701 1.09186 3.48528 2.1774C1.71355 3.26294 0.718201 4.73524 0.718201 6.27043C0.718201 7.80561 1.71355 9.27792 3.48528 10.3635L5.30563 11.4788L18.6663 19.6649L32.0269 11.4788L33.8473 10.3635C34.7248 9.82605 35.4209 9.18797 35.8959 8.48567C36.3708 7.78337 36.6153 7.03063 36.6153 6.27043C36.6153 5.51023 36.3708 4.75748 35.8959 4.05519C35.4209 3.35289 34.7248 2.71481 33.8473 2.1774Z" fill="#FC545E"/>
</svg>
